<svg width="24" height="27" viewBox="0 0 24 27" fill="none" xmlns="http://www.w3.org/2000/svg">
<path d="M11.9998 24.6025L8.10245 25.923C7.964 25.9675 7.83238 25.9987 7.70758 26.0166C7.5828 26.0346 7.45802 26.0435 7.33322 26.0435C6.6905 26.0435 6.12811 25.8171 5.64605 25.3641C5.164 24.9111 4.92298 24.3342 4.92298 23.6333V16.8795L1.25118 10.9385C1.1264 10.7333 1.03495 10.5248 0.976815 10.3128C0.918704 10.1009 0.889648 9.88547 0.889648 9.66667C0.889648 9.44787 0.918704 9.2325 0.976815 9.02054C1.03495 8.80856 1.1264 8.60001 1.25118 8.39487L5.52808 1.47184C5.74688 1.10604 6.03705 0.824853 6.39858 0.628276C6.76012 0.431676 7.15285 0.333374 7.57678 0.333374H16.4229C16.8469 0.333374 17.2396 0.431676 17.6011 0.628276C17.9627 0.824853 18.2528 1.10604 18.4716 1.47184L22.7485 8.39487C22.8733 8.60001 22.9647 8.80856 23.0229 9.02054C23.081 9.2325 23.1101 9.44787 23.1101 9.66667C23.1101 9.88547 23.081 10.1009 23.0229 10.3128C22.9647 10.5248 22.8733 10.7333 22.7485 10.9385L19.0767 16.8795V23.6333C19.0767 24.3342 18.8357 24.9111 18.3537 25.3641C17.8716 25.8171 17.3092 26.0435 16.6665 26.0435C16.5417 26.0435 16.4169 26.0346 16.2921 26.0166C16.1673 25.9987 16.0357 25.9675 15.8972 25.923L11.9998 24.6025ZM11.9998 22.4821L16.5382 23.9923C16.675 24.0351 16.7989 24.018 16.9101 23.941C17.0212 23.8641 17.0767 23.753 17.0767 23.6077V19H6.92295V23.6077C6.92295 23.753 6.9785 23.8641 7.08962 23.941C7.20075 24.018 7.32469 24.0351 7.46145 23.9923L11.9998 22.4821ZM7.57678 17H16.4229C16.4913 17 16.5554 16.9829 16.6152 16.9487C16.6751 16.9145 16.7263 16.8675 16.7691 16.8077L21.0588 9.88464C21.1015 9.81626 21.1229 9.74361 21.1229 9.66667C21.1229 9.58974 21.1015 9.51709 21.0588 9.44871L16.7691 2.52568C16.7263 2.46583 16.6751 2.41882 16.6152 2.38464C16.5554 2.35044 16.4913 2.33334 16.4229 2.33334H7.57678C7.5084 2.33334 7.4443 2.35044 7.38448 2.38464C7.32464 2.41882 7.27335 2.46583 7.23062 2.52568L2.94088 9.44871C2.89815 9.51709 2.87678 9.58974 2.87678 9.66667C2.87678 9.74361 2.89815 9.81626 2.94088 9.88464L7.23062 16.8077C7.27335 16.8675 7.32464 16.9145 7.38448 16.9487C7.4443 16.9829 7.5084 17 7.57678 17ZM10.5998 11.8077L15.5434 6.83081C15.7281 6.63252 15.9567 6.53679 16.2293 6.54361C16.502 6.55045 16.7374 6.64619 16.9357 6.83081C17.1426 7.02907 17.2473 7.26667 17.2498 7.54361C17.2524 7.82052 17.1545 8.05812 16.9562 8.25641L11.4434 13.782C11.2024 14.0231 10.9212 14.1436 10.5998 14.1436C10.2785 14.1436 9.9973 14.0231 9.75628 13.782L7.06398 11.1025C6.85714 10.9043 6.75372 10.6688 6.75372 10.3962C6.75372 10.1235 6.85714 9.88378 7.06398 9.67694C7.2708 9.47012 7.5084 9.36671 7.77678 9.36671C8.04514 9.36671 8.28274 9.47012 8.48958 9.67694L10.5998 11.8077Z" fill="#3366FF"/>
</svg>
