<svg width="26" height="26" viewBox="0 0 26 26" fill="none" xmlns="http://www.w3.org/2000/svg">
<path d="M13.0001 19.3333C13.2835 19.3333 13.521 19.2375 13.7124 19.0458C13.9039 18.8542 13.9996 18.6167 13.9996 18.3333V12.6666C13.9996 12.3833 13.9037 12.1458 13.712 11.9542C13.5203 11.7625 13.2827 11.6667 12.9992 11.6667C12.7157 11.6667 12.4783 11.7625 12.2868 11.9542C12.0954 12.1458 11.9997 12.3833 11.9997 12.6666V18.3333C11.9997 18.6167 12.0955 18.8542 12.2873 19.0458C12.479 19.2375 12.7166 19.3333 13.0001 19.3333ZM12.9996 9.38464C13.3048 9.38464 13.5605 9.28144 13.7669 9.07504C13.9733 8.86864 14.0765 8.61287 14.0765 8.30774C14.0765 8.00263 13.9733 7.74686 13.7669 7.54044C13.5605 7.33404 13.3048 7.23084 12.9996 7.23084C12.6945 7.23084 12.4387 7.33404 12.2323 7.54044C12.0259 7.74686 11.9227 8.00263 11.9227 8.30774C11.9227 8.61287 12.0259 8.86864 12.2323 9.07504C12.4387 9.28144 12.6945 9.38464 12.9996 9.38464ZM13.0019 25.6666C11.25 25.6666 9.60325 25.3342 8.06174 24.6693C6.52021 24.0044 5.1793 23.1021 4.03901 21.9623C2.8987 20.8225 1.99595 19.4822 1.33077 17.9413C0.665597 16.4005 0.333008 14.7542 0.333008 13.0022C0.333008 11.2503 0.665452 9.60362 1.33034 8.06211C1.99523 6.52057 2.89756 5.17966 4.03734 4.03938C5.17714 2.89906 6.51746 1.99632 8.05831 1.33114C9.59913 0.665964 11.2455 0.333374 12.9974 0.333374C14.7493 0.333374 16.396 0.66582 17.9375 1.33071C19.4791 1.9956 20.82 2.89793 21.9603 4.03771C23.1006 5.17751 24.0033 6.51783 24.6685 8.05868C25.3337 9.5995 25.6663 11.2459 25.6663 12.9978C25.6663 14.7497 25.3338 16.3964 24.6689 17.9379C24.0041 19.4794 23.1017 20.8204 21.9619 21.9606C20.8221 23.101 19.4818 24.0037 17.941 24.6689C16.4002 25.3341 14.7538 25.6666 13.0019 25.6666ZM12.9996 23.6667C15.9774 23.6667 18.4996 22.6333 20.5663 20.5667C22.633 18.5 23.6663 15.9778 23.6663 13C23.6663 10.0222 22.633 7.50001 20.5663 5.43334C18.4996 3.36667 15.9774 2.33334 12.9996 2.33334C10.0219 2.33334 7.49964 3.36667 5.43297 5.43334C3.36631 7.50001 2.33297 10.0222 2.33297 13C2.33297 15.9778 3.36631 18.5 5.43297 20.5667C7.49964 22.6333 10.0219 23.6667 12.9996 23.6667Z" fill="#3366FF"/>
</svg>
