<svg width="26" height="26" viewBox="0 0 26 26" fill="none" xmlns="http://www.w3.org/2000/svg">
<path d="M15.5381 25.0718C15.1544 25.4547 14.679 25.6461 14.1119 25.6461C13.5448 25.6461 13.0698 25.4547 12.6868 25.0718L0.953508 13.3384C0.760352 13.1453 0.608652 12.923 0.498408 12.6714C0.388141 12.42 0.333008 12.1517 0.333008 11.8667V2.33334C0.333008 1.78805 0.530019 1.31841 0.924041 0.924408C1.31804 0.530386 1.78769 0.333374 2.33297 0.333374H11.8663C12.1415 0.333374 12.4051 0.387087 12.6571 0.494509C12.9092 0.601909 13.1276 0.746485 13.3124 0.928241L25.0458 12.6821C25.4372 13.0736 25.6351 13.5517 25.6393 14.1167C25.6436 14.6816 25.4543 15.1555 25.0714 15.5384L15.5381 25.0718ZM14.1067 23.6667L23.6458 14.1333L11.872 2.33334H2.33297V11.8667L14.1067 23.6667ZM5.66481 7.33331C6.12734 7.33331 6.521 7.17142 6.84577 6.84764C7.17055 6.52386 7.33294 6.13071 7.33294 5.66817C7.33294 5.20564 7.17105 4.81199 6.84727 4.48721C6.5235 4.16243 6.13034 4.00004 5.66781 4.00004C5.20527 4.00004 4.81162 4.16193 4.48684 4.48571C4.16206 4.80949 3.99967 5.20264 3.99967 5.66518C3.99967 6.12771 4.16156 6.52136 4.48534 6.84614C4.80912 7.17092 5.20227 7.33331 5.66481 7.33331Z" fill="#3366FF"/>
</svg>
