<svg width="38" height="35" viewBox="0 0 38 35" fill="none" xmlns="http://www.w3.org/2000/svg">
<path d="M19.0026 34.9169C16.8402 34.9169 14.8141 34.5079 12.9244 33.69C11.0347 32.872 9.38702 31.7603 7.98146 30.3548C6.57594 28.9492 5.46421 27.3016 4.64626 25.4118C3.82829 23.5221 3.41931 21.496 3.41931 19.3336C3.41931 17.1713 3.82829 15.1452 4.64626 13.2555C5.46421 11.3657 6.57594 9.71808 7.98146 8.31252C9.38702 6.90699 11.0347 5.79526 12.9244 4.97732C14.8141 4.15935 16.8402 3.75036 19.0026 3.75036C21.165 3.75036 23.191 4.15935 25.0808 4.97732C26.9705 5.79526 28.6182 6.90699 30.0237 8.31252C31.4293 9.71808 32.541 11.3657 33.3589 13.2555C34.1769 15.1452 34.5859 17.1713 34.5859 19.3336C34.5859 21.496 34.1769 23.5221 33.3589 25.4118C32.541 27.3016 31.4293 28.9492 30.0237 30.3548C28.6182 31.7603 26.9705 32.872 25.0808 33.69C23.191 34.5079 21.165 34.9169 19.0026 34.9169ZM24.4533 26.7163L26.3852 24.7843L20.3775 18.7766V10.167H17.6276V19.8907L24.4533 26.7163ZM7.55132 0.795898L9.48333 2.72791L2.39686 9.81439L0.464844 7.88237L7.55132 0.795898ZM30.4539 0.795898L37.5403 7.88237L35.6083 9.81439L28.5219 2.72791L30.4539 0.795898Z" fill="#D7E1FF"/>
</svg>
