<svg width="16" height="16" viewBox="0 0 16 16" fill="none" xmlns="http://www.w3.org/2000/svg">
<mask id="mask0_1_1498" style="mask-type:alpha" maskUnits="userSpaceOnUse" x="0" y="0" width="16" height="16">
<rect width="16" height="16" fill="#D9D9D9"/>
</mask>
<g mask="url(#mask0_1_1498)">
<path d="M8.00077 14.3334C7.21444 14.3334 6.47769 14.1847 5.79052 13.8873C5.10334 13.5898 4.50419 13.1856 3.99308 12.6745C3.48198 12.1634 3.07772 11.5642 2.78028 10.877C2.48284 10.1899 2.33412 9.4531 2.33412 8.66678C2.33412 7.88046 2.48284 7.14371 2.78028 6.45653C3.07772 5.76935 3.48198 5.17021 3.99308 4.6591C4.50419 4.148 5.10334 3.74373 5.79052 3.4463C6.47769 3.14885 7.21444 3.00013 8.00077 3.00013C8.78709 3.00013 9.52384 3.14885 10.211 3.4463C10.8982 3.74373 11.4973 4.148 12.0084 4.6591C12.5196 5.17021 12.9238 5.76935 13.2213 6.45653C13.5187 7.14371 13.6674 7.88046 13.6674 8.66678C13.6674 9.4531 13.5187 10.1899 13.2213 10.877C12.9238 11.5642 12.5196 12.1634 12.0084 12.6745C11.4973 13.1856 10.8982 13.5898 10.211 13.8873C9.52384 14.1847 8.78709 14.3334 8.00077 14.3334ZM9.98283 11.3514L10.6854 10.6488L8.50075 8.46421V5.33345H7.50078V8.86935L9.98283 11.3514ZM3.83667 1.92578L4.53922 2.62833L1.96232 5.20523L1.25977 4.50268L3.83667 1.92578ZM12.1649 1.92578L14.7418 4.50268L14.0392 5.20523L11.4623 2.62833L12.1649 1.92578Z" fill="#464753"/>
</g>
</svg>
