<svg width="16" height="12" viewBox="0 0 16 12" fill="none" xmlns="http://www.w3.org/2000/svg">
<path d="M3.18703 6.74998L6.47936 10.0423C6.62807 10.191 6.70147 10.3651 6.69956 10.5644C6.69762 10.7638 6.62422 10.941 6.47936 11.0962C6.32424 11.2513 6.14604 11.3314 5.94476 11.3365C5.74349 11.3417 5.56529 11.2667 5.41016 11.1115L0.931306 6.63268C0.75054 6.45191 0.660156 6.24102 0.660156 6C0.660156 5.75898 0.75054 5.54809 0.931306 5.36733L5.41016 0.888476C5.55887 0.739759 5.73547 0.66636 5.93996 0.668276C6.14444 0.67021 6.32424 0.748734 6.47936 0.903851C6.62422 1.05898 6.69922 1.23463 6.70436 1.43078C6.70949 1.62693 6.63449 1.80256 6.47936 1.95768L3.18703 5.25003H14.9525C15.1653 5.25003 15.3435 5.32182 15.4871 5.4654C15.6306 5.60898 15.7024 5.78718 15.7024 6C15.7024 6.21282 15.6306 6.39102 15.4871 6.5346C15.3435 6.67818 15.1653 6.74998 14.9525 6.74998H3.18703Z" fill="#BFBFBF"/>
</svg>
