<svg width="16" height="12" viewBox="0 0 16 12" fill="none" xmlns="http://www.w3.org/2000/svg">
<path d="M12.6116 6.74997H1.25C1.03718 6.74997 0.858983 6.67818 0.7154 6.5346C0.5718 6.39102 0.5 6.21282 0.5 6C0.5 5.78718 0.5718 5.60898 0.7154 5.4654C0.858983 5.32182 1.03718 5.25002 1.25 5.25002H12.6116L9.3192 1.95767C9.17048 1.80896 9.09709 1.63492 9.09902 1.43557C9.10094 1.23622 9.17433 1.05898 9.3192 0.903848C9.47433 0.748732 9.65253 0.668607 9.8538 0.663474C10.0551 0.65834 10.2333 0.73334 10.3884 0.888474L14.8672 5.36732C14.9608 5.46091 15.0269 5.55962 15.0653 5.66347C15.1038 5.76731 15.123 5.87948 15.123 6C15.123 6.12052 15.1038 6.23269 15.0653 6.33652C15.0269 6.44037 14.9608 6.53909 14.8672 6.63267L10.3884 11.1115C10.2397 11.2602 10.0631 11.3336 9.85863 11.3317C9.65414 11.3298 9.47433 11.2513 9.3192 11.0961C9.17433 10.941 9.09933 10.7654 9.0942 10.5692C9.08908 10.3731 9.16408 10.1974 9.3192 10.0423L12.6116 6.74997Z" fill="#3366FF"/>
</svg>
