<svg width="32" height="32" viewBox="0 0 32 32" fill="none" xmlns="http://www.w3.org/2000/svg">
<path d="M29.6419 31.5837C26.1868 31.5837 22.7158 30.7804 19.229 29.1739C15.7421 27.5674 12.5356 25.301 9.60929 22.3747C6.69478 19.4484 4.43427 16.2448 2.82775 12.7639C1.22123 9.2829 0.417969 5.81486 0.417969 2.35976C0.417969 1.80976 0.601302 1.34849 0.967969 0.97596C1.33464 0.603396 1.79297 0.417114 2.34297 0.417114H8.32239C8.78542 0.417114 9.19381 0.568136 9.54756 0.870177C9.9013 1.17222 10.1263 1.54535 10.2227 1.98957L11.2733 7.38374C11.3462 7.88439 11.3309 8.31452 11.2275 8.67413C11.1241 9.03374 10.9384 9.33576 10.6704 9.58021L6.43616 13.7017C7.11779 14.9498 7.89638 16.1302 8.77192 17.2432C9.64746 18.3561 10.5953 19.4191 11.6153 20.4322C12.6213 21.4381 13.6908 22.3724 14.8237 23.2351C15.9566 24.0977 17.18 24.9003 18.4939 25.6431L22.6083 21.4934C22.8951 21.1949 23.2424 20.9857 23.6502 20.8658C24.0579 20.746 24.4816 20.7166 24.9212 20.7777L30.0121 21.8142C30.4751 21.9364 30.853 22.1727 31.1456 22.5229C31.4382 22.8731 31.5845 23.2703 31.5845 23.7146V29.6587C31.5845 30.2087 31.3983 30.667 31.0257 31.0337C30.6532 31.4004 30.1919 31.5837 29.6419 31.5837Z" fill="#D7E1FF"/>
</svg>
