<svg width="16" height="16" viewBox="0 0 16 16" fill="none" xmlns="http://www.w3.org/2000/svg">
<mask id="mask0_1_1488" style="mask-type:alpha" maskUnits="userSpaceOnUse" x="0" y="0" width="16" height="16">
<rect width="16" height="16" fill="#D9D9D9"/>
</mask>
<g mask="url(#mask0_1_1488)">
<path d="M12.9609 13.6663C11.7045 13.6663 10.4423 13.3742 9.17435 12.79C7.90641 12.2058 6.74038 11.3817 5.67628 10.3176C4.61646 9.25349 3.79446 8.08854 3.21027 6.82274C2.62608 5.55693 2.33398 4.29583 2.33398 3.03942C2.33398 2.83942 2.40065 2.67169 2.53398 2.53622C2.66732 2.40075 2.83398 2.33301 3.03398 2.33301H5.20832C5.3767 2.33301 5.5252 2.38792 5.65383 2.49776C5.78247 2.60759 5.8643 2.74328 5.89933 2.90481L6.28138 4.86633C6.30788 5.04838 6.30233 5.20479 6.26472 5.33556C6.22712 5.46633 6.1596 5.57615 6.06215 5.66504L4.52242 7.16376C4.77028 7.6176 5.05341 8.04688 5.37178 8.45158C5.69016 8.85629 6.03482 9.24283 6.40575 9.61121C6.77157 9.97702 7.16047 10.3168 7.57244 10.6304C7.9844 10.9441 8.42927 11.236 8.90705 11.5061L10.4032 9.99711C10.5075 9.88856 10.6338 9.8125 10.7821 9.76891C10.9303 9.72532 11.0844 9.71464 11.2442 9.73686L13.0955 10.1138C13.2639 10.1582 13.4013 10.2441 13.5077 10.3715C13.6141 10.4988 13.6673 10.6433 13.6673 10.8048V12.9663C13.6673 13.1663 13.5995 13.333 13.4641 13.4663C13.3286 13.5996 13.1609 13.6663 12.9609 13.6663Z" fill="#464753"/>
</g>
</svg>
