<svg width="8" height="8" viewBox="0 0 8 8" fill="none" xmlns="http://www.w3.org/2000/svg">
<path d="M4.00093 4.88633L1.29578 7.59149C1.17506 7.71222 1.02869 7.77124 0.856676 7.76856C0.684676 7.76589 0.538315 7.7042 0.417593 7.58347C0.29687 7.46275 0.23651 7.31505 0.23651 7.14037C0.23651 6.9657 0.29687 6.81801 0.417593 6.69729L3.11474 4.00014L0.409572 1.31583C0.288849 1.19511 0.229829 1.0474 0.232509 0.872723C0.235176 0.698042 0.29687 0.550341 0.417593 0.429619C0.538315 0.308897 0.686016 0.248535 0.860697 0.248535C1.03536 0.248535 1.18306 0.308897 1.30378 0.429619L4.00093 3.13479L6.68524 0.429619C6.80596 0.308897 6.95233 0.248535 7.12434 0.248535C7.29634 0.248535 7.4427 0.308897 7.56343 0.429619C7.69269 0.558897 7.75732 0.708737 7.75732 0.87914C7.75732 1.04954 7.69269 1.19511 7.56343 1.31583L4.86628 4.00014L7.57145 6.70529C7.69217 6.82601 7.75253 6.97238 7.75253 7.14439C7.75253 7.31639 7.69217 7.46275 7.57145 7.58347C7.44217 7.71274 7.29233 7.77737 7.12193 7.77737C6.95152 7.77737 6.80596 7.71274 6.68524 7.58347L4.00093 4.88633Z" fill="#667085"/>
</svg>
