<svg width="16" height="16" viewBox="0 0 16 16" fill="none" xmlns="http://www.w3.org/2000/svg">
<path d="M14.2016 15.0835C12.6311 15.0835 11.0534 14.7184 9.46843 13.9881C7.8835 13.2579 6.42597 12.2277 5.09584 10.8976C3.77107 9.56747 2.74356 8.11129 2.01332 6.52904C1.28309 4.94677 0.917969 3.37039 0.917969 1.79989C0.917969 1.54989 1.0013 1.34022 1.16797 1.17089C1.33464 1.00154 1.54297 0.91687 1.79297 0.91687H4.51089C4.72136 0.91687 4.90699 0.985516 5.06778 1.12281C5.22857 1.2601 5.33086 1.4297 5.37466 1.63162L5.85222 4.08352C5.88534 4.31109 5.8784 4.5066 5.83139 4.67006C5.78439 4.83352 5.69998 4.9708 5.57818 5.08191L3.65351 6.95531C3.96334 7.52261 4.31725 8.0592 4.71522 8.56508C5.11319 9.07097 5.54401 9.55415 6.00768 10.0146C6.46495 10.4719 6.95107 10.8966 7.46603 11.2887C7.98099 11.6808 8.53708 12.0456 9.1343 12.3832L11.0045 10.497C11.1348 10.3613 11.2927 10.2662 11.4781 10.2117C11.6634 10.1573 11.856 10.1439 12.0558 10.1717L14.3698 10.6428C14.5803 10.6984 14.7521 10.8058 14.8851 10.9649C15.0181 11.1241 15.0846 11.3047 15.0846 11.5066V14.2085C15.0846 14.4585 14.9999 14.6668 14.8306 14.8335C14.6612 15.0002 14.4516 15.0835 14.2016 15.0835Z" fill="#BFBFBF"/>
</svg>
