<svg width="20" height="20" viewBox="0 0 20 20" fill="none" xmlns="http://www.w3.org/2000/svg">
<mask id="mask0_12_5828" style="mask-type:alpha" maskUnits="userSpaceOnUse" x="0" y="0" width="20" height="20">
<rect width="20" height="20" fill="#D9D9D9"/>
</mask>
<g mask="url(#mask0_12_5828)">
<path d="M6.66634 15H13.333V13.3333H6.66634V15ZM6.66634 11.6666H13.333V9.99996H6.66634V11.6666ZM4.99967 18.3333C4.54134 18.3333 4.14898 18.1701 3.82259 17.8437C3.4962 17.5173 3.33301 17.125 3.33301 16.6666V3.33329C3.33301 2.87496 3.4962 2.4826 3.82259 2.15621C4.14898 1.82982 4.54134 1.66663 4.99967 1.66663H11.6663L16.6663 6.66663V16.6666C16.6663 17.125 16.5031 17.5173 16.1768 17.8437C15.8504 18.1701 15.458 18.3333 14.9997 18.3333H4.99967ZM10.833 7.49996V3.33329H4.99967V16.6666H14.9997V7.49996H10.833Z" fill="#BFBFBF"/>
</g>
</svg>
