<svg width="20" height="20" viewBox="0 0 20 20" fill="none" xmlns="http://www.w3.org/2000/svg">
<mask id="mask0_12_5202" style="mask-type:alpha" maskUnits="userSpaceOnUse" x="0" y="0" width="20" height="20">
<rect width="20" height="20" fill="#D9D9D9"/>
</mask>
<g mask="url(#mask0_12_5202)">
<path d="M3.58942 16.25C3.16848 16.25 2.81217 16.1041 2.52051 15.8125C2.22884 15.5208 2.08301 15.1645 2.08301 14.7435V5.25642C2.08301 4.83547 2.22884 4.47917 2.52051 4.1875C2.81217 3.89583 3.16848 3.75 3.58942 3.75H16.4099C16.8308 3.75 17.1871 3.89583 17.4788 4.1875C17.7705 4.47917 17.9163 4.83547 17.9163 5.25642V14.7435C17.9163 15.1645 17.7705 15.5208 17.4788 15.8125C17.1871 16.1041 16.8308 16.25 16.4099 16.25H3.58942ZM16.6663 6.20187L10.4051 10.2099C10.341 10.2462 10.2748 10.2748 10.2064 10.2956C10.138 10.3165 10.0691 10.3269 9.99965 10.3269C9.93021 10.3269 9.8613 10.3165 9.79292 10.2956C9.72455 10.2748 9.65831 10.2462 9.59422 10.2099L3.33299 6.20187V14.7435C3.33299 14.8183 3.35703 14.8798 3.40511 14.9279C3.4532 14.9759 3.51463 15 3.58942 15H16.4099C16.4847 15 16.5461 14.9759 16.5942 14.9279C16.6423 14.8798 16.6663 14.8183 16.6663 14.7435V6.20187ZM9.99965 9.16665L16.5381 4.99998H3.4612L9.99965 9.16665ZM3.33299 6.39417V5.44148V5.46631V5.43988V6.39417Z" fill="#BFBFBF"/>
</g>
</svg>
