<svg width="14" height="14" viewBox="0 0 14 14" fill="none" xmlns="http://www.w3.org/2000/svg">
<path d="M7.00065 6.99999C6.08398 6.99999 5.29926 6.67361 4.64648 6.02083C3.99371 5.36805 3.66732 4.58333 3.66732 3.66666C3.66732 2.74999 3.99371 1.96527 4.64648 1.31249C5.29926 0.659717 6.08398 0.333328 7.00065 0.333328C7.91732 0.333328 8.70204 0.659717 9.35482 1.31249C10.0076 1.96527 10.334 2.74999 10.334 3.66666C10.334 4.58333 10.0076 5.36805 9.35482 6.02083C8.70204 6.67361 7.91732 6.99999 7.00065 6.99999ZM0.333984 13.6667V11.3333C0.333984 10.8611 0.455512 10.4271 0.698568 10.0312C0.941623 9.63541 1.26454 9.33333 1.66732 9.125C2.52843 8.69444 3.40343 8.37152 4.29232 8.15624C5.18121 7.94097 6.08398 7.83333 7.00065 7.83333C7.91732 7.83333 8.8201 7.94097 9.70898 8.15624C10.5979 8.37152 11.4729 8.69444 12.334 9.125C12.7368 9.33333 13.0597 9.63541 13.3027 10.0312C13.5458 10.4271 13.6673 10.8611 13.6673 11.3333V13.6667H0.333984ZM2.00065 12H12.0007V11.3333C12.0007 11.1805 11.9625 11.0417 11.8861 10.9167C11.8097 10.7917 11.709 10.6944 11.584 10.625C10.834 10.25 10.077 9.96875 9.31315 9.78125C8.54926 9.59375 7.77843 9.49999 7.00065 9.49999C6.22287 9.49999 5.45204 9.59375 4.68815 9.78125C3.92426 9.96875 3.16732 10.25 2.41732 10.625C2.29232 10.6944 2.19162 10.7917 2.11523 10.9167C2.03885 11.0417 2.00065 11.1805 2.00065 11.3333V12ZM7.00065 5.33333C7.45898 5.33333 7.85135 5.17013 8.17773 4.84374C8.50412 4.51736 8.66732 4.12499 8.66732 3.66666C8.66732 3.20833 8.50412 2.81597 8.17773 2.48958C7.85135 2.16319 7.45898 1.99999 7.00065 1.99999C6.54232 1.99999 6.14996 2.16319 5.82357 2.48958C5.49718 2.81597 5.33398 3.20833 5.33398 3.66666C5.33398 4.12499 5.49718 4.51736 5.82357 4.84374C6.14996 5.17013 6.54232 5.33333 7.00065 5.33333Z" fill="#BFBFBF"/>
</svg>
