<svg width="28" height="35" viewBox="0 0 28 35" fill="none" xmlns="http://www.w3.org/2000/svg">
<path d="M13.9994 17.2527C14.9116 17.2527 15.6915 16.9279 16.3391 16.2783C16.9866 15.6287 17.3104 14.8477 17.3104 13.9355C17.3104 13.0233 16.9856 12.2434 16.3359 11.5959C15.6863 10.9483 14.9054 10.6246 13.9932 10.6246C13.0809 10.6246 12.3011 10.9494 11.6535 11.599C11.006 12.2486 10.6822 13.0295 10.6822 13.9417C10.6822 14.854 11.007 15.6339 11.6566 16.2814C12.3063 16.9289 13.0872 17.2527 13.9994 17.2527ZM13.9963 34.9337C9.38244 30.9357 5.92262 27.215 3.61683 23.7716C1.31108 20.3283 0.158203 17.1669 0.158203 14.2876C0.158203 10.0569 1.52674 6.63178 4.26382 4.01222C7.00086 1.39267 10.245 0.0828857 13.9963 0.0828857C17.7476 0.0828857 20.9917 1.39267 23.7288 4.01222C26.4658 6.63178 27.8344 10.0569 27.8344 14.2876C27.8344 17.1669 26.6815 20.3283 24.3758 23.7716C22.07 27.215 18.6102 30.9357 13.9963 34.9337Z" fill="#D7E1FF"/>
</svg>
