<svg width="16" height="16" viewBox="0 0 16 16" fill="none" xmlns="http://www.w3.org/2000/svg">
<mask id="mask0_1_1503" style="mask-type:alpha" maskUnits="userSpaceOnUse" x="0" y="0" width="16" height="16">
<rect width="16" height="16" fill="#D9D9D9"/>
</mask>
<g mask="url(#mask0_1_1503)">
<path d="M7.99996 7.91056C8.33169 7.91056 8.61528 7.79245 8.85075 7.55623C9.08621 7.32 9.20395 7.03603 9.20395 6.70431C9.20395 6.37259 9.08584 6.08899 8.84961 5.85353C8.61339 5.61806 8.32942 5.50033 7.9977 5.50033C7.66597 5.50033 7.38238 5.61844 7.14691 5.85466C6.91145 6.09088 6.79371 6.37485 6.79371 6.70658C6.79371 7.0383 6.91182 7.32189 7.14805 7.55736C7.38427 7.79283 7.66824 7.91056 7.99996 7.91056ZM7.99883 14.34C6.32106 12.8862 5.06295 11.5332 4.22448 10.2811C3.38602 9.02894 2.9668 7.87937 2.9668 6.83236C2.9668 5.29391 3.46445 4.04841 4.45975 3.09584C5.45504 2.14328 6.63473 1.66699 7.99883 1.66699C9.36293 1.66699 10.5426 2.14328 11.5379 3.09584C12.5332 4.04841 13.0309 5.29391 13.0309 6.83236C13.0309 7.87937 12.6116 9.02894 11.7732 10.2811C10.9347 11.5332 9.6766 12.8862 7.99883 14.34Z" fill="#464753"/>
</g>
</svg>
