<svg width="36" height="28" viewBox="0 0 36 28" fill="none" xmlns="http://www.w3.org/2000/svg">
<path d="M3.89615 27.7499C2.97007 27.7499 2.1862 27.4291 1.54453 26.7874C0.902865 26.1457 0.582031 25.3619 0.582031 24.4358V3.56412C0.582031 2.63804 0.902865 1.85417 1.54453 1.2125C2.1862 0.570833 2.97007 0.25 3.89615 0.25H32.1012C33.0272 0.25 33.8111 0.570833 34.4528 1.2125C35.0944 1.85417 35.4153 2.63804 35.4153 3.56412V24.4358C35.4153 25.3619 35.0944 26.1457 34.4528 26.7874C33.8111 27.4291 33.0272 27.7499 32.1012 27.7499H3.89615ZM17.9987 15.0223L32.6653 5.64412L32.3833 2.99996L17.9987 12.1666L3.61404 2.99996L3.33199 5.64412L17.9987 15.0223Z" fill="#D7E1FF"/>
</svg>
