<svg width="16" height="16" viewBox="0 0 16 16" fill="none" xmlns="http://www.w3.org/2000/svg">
<mask id="mask0_1_1493" style="mask-type:alpha" maskUnits="userSpaceOnUse" x="0" y="0" width="16" height="16">
<rect width="16" height="16" fill="#D9D9D9"/>
</mask>
<g mask="url(#mask0_1_1493)">
<path d="M2.87115 13C2.53439 13 2.24935 12.8833 2.01602 12.65C1.78268 12.4166 1.66602 12.1316 1.66602 11.7948V4.20513C1.66602 3.86838 1.78268 3.58333 2.01602 3.35C2.24935 3.11667 2.53439 3 2.87115 3H13.1275C13.4643 3 13.7493 3.11667 13.9826 3.35C14.216 3.58333 14.3327 3.86838 14.3327 4.20513V11.7948C14.3327 12.1316 14.216 12.4166 13.9826 12.65C13.7493 12.8833 13.4643 13 13.1275 13H2.87115ZM7.99933 8.37175L13.3327 4.9615L13.2301 3.99998L7.99933 7.33332L2.76857 3.99998L2.666 4.9615L7.99933 8.37175Z" fill="#464753"/>
</g>
</svg>
