<svg width="29" height="20" viewBox="0 0 29 20" fill="none" xmlns="http://www.w3.org/2000/svg">
<path d="M2.08398 19.1667C1.72982 19.1667 1.43294 19.0469 1.19336 18.8072C0.953776 18.5675 0.833984 18.2705 0.833984 17.9162C0.833984 17.5619 0.953776 17.2651 1.19336 17.0257C1.43294 16.7864 1.72982 16.6668 2.08398 16.6668H19.9365C20.2907 16.6668 20.5875 16.7866 20.8271 17.0263C21.0667 17.266 21.1865 17.563 21.1865 17.9173C21.1865 18.2716 21.0667 18.5684 20.8271 18.8077C20.5875 19.0471 20.2907 19.1667 19.9365 19.1667H2.08398ZM26.5326 16.702L20.8692 11.0546C20.568 10.7533 20.4173 10.4018 20.4173 10.0001C20.4173 9.59843 20.568 9.24694 20.8692 8.94566L26.5326 3.31425C26.7634 3.0835 27.0535 2.96544 27.4028 2.96008C27.7522 2.95475 28.0476 3.0728 28.289 3.31425C28.5305 3.55569 28.6512 3.84843 28.6512 4.19246C28.6512 4.53646 28.5305 4.82918 28.289 5.07062L23.3114 10.0001L28.289 14.9457C28.5305 15.1729 28.6512 15.462 28.6512 15.8132C28.6512 16.1643 28.5305 16.4606 28.289 16.702C28.0618 16.9328 27.7727 17.0482 27.4215 17.0482C27.0704 17.0482 26.7741 16.9328 26.5326 16.702ZM2.08398 11.2501C1.72982 11.2501 1.43294 11.1302 1.19336 10.8906C0.953776 10.6509 0.833984 10.3539 0.833984 9.99958C0.833984 9.64525 0.953776 9.34843 1.19336 9.10912C1.43294 8.86982 1.72982 8.75016 2.08398 8.75016H15.0647C15.4189 8.75016 15.7157 8.87 15.9553 9.10966C16.1949 9.34936 16.3147 9.64636 16.3147 10.0007C16.3147 10.355 16.1949 10.6518 15.9553 10.8911C15.7157 11.1304 15.4189 11.2501 15.0647 11.2501H2.08398ZM2.08398 3.33346C1.72982 3.33346 1.43294 3.21361 1.19336 2.97391C0.953776 2.73425 0.833984 2.43725 0.833984 2.08291C0.833984 1.72861 0.953776 1.4318 1.19336 1.1925C1.43294 0.953164 1.72982 0.833496 2.08398 0.833496H19.9365C20.2907 0.833496 20.5875 0.953344 20.8271 1.19304C21.0667 1.43273 21.1865 1.72973 21.1865 2.08404C21.1865 2.43837 21.0667 2.73519 20.8271 2.9745C20.5875 3.2138 20.2907 3.33346 19.9365 3.33346H2.08398Z" fill="#464753"/>
</svg>
