<svg width="26" height="20" viewBox="0 0 26 20" fill="none" xmlns="http://www.w3.org/2000/svg">
<path d="M2.74327 19.9999C2.06976 19.9999 1.49967 19.7666 1.03301 19.2999C0.566341 18.8333 0.333008 18.2632 0.333008 17.5897V2.41027C0.333008 1.73676 0.566341 1.16667 1.03301 0.7C1.49967 0.233333 2.06976 0 2.74327 0H23.256C23.9295 0 24.4996 0.233333 24.9663 0.7C25.4329 1.16667 25.6663 1.73676 25.6663 2.41027V17.5897C25.6663 18.2632 25.4329 18.8333 24.9663 19.2999C24.4996 19.7666 23.9295 19.9999 23.256 19.9999H2.74327ZM23.6663 3.923L13.6483 10.3358C13.5458 10.3939 13.4398 10.4397 13.3304 10.473C13.221 10.5063 13.1108 10.523 12.9996 10.523C12.8885 10.523 12.7783 10.5063 12.6689 10.473C12.5595 10.4397 12.4535 10.3939 12.3509 10.3358L2.33297 3.923V17.5897C2.33297 17.7093 2.37144 17.8076 2.44837 17.8846C2.52531 17.9615 2.62361 18 2.74327 18H23.256C23.3757 18 23.474 17.9615 23.5509 17.8846C23.6278 17.8076 23.6663 17.7093 23.6663 17.5897V3.923ZM12.9996 8.66663L23.4612 1.99997H2.53811L12.9996 8.66663ZM2.33297 4.23067V2.70637V2.7461V2.7038V4.23067Z" fill="#464753"/>
</svg>
