<svg width="24" height="24" viewBox="0 0 24 24" fill="none" xmlns="http://www.w3.org/2000/svg">
<path d="M21.9208 23.3334C19.408 23.3334 16.8836 22.7492 14.3477 21.5808C11.8118 20.4124 9.48194 18.7641 7.35803 16.6359C5.23409 14.5077 3.58794 12.1778 2.41956 9.64622C1.25118 7.11459 0.666992 4.59238 0.666992 2.07958C0.666992 1.67592 0.800326 1.33953 1.06699 1.07042C1.33366 0.801305 1.66699 0.666748 2.06699 0.666748H6.41566C6.75241 0.666748 7.04943 0.776582 7.30669 0.996248C7.56396 1.21592 7.72763 1.48728 7.79769 1.81035L8.56179 5.73338C8.61479 6.09749 8.60368 6.41032 8.52846 6.67185C8.45326 6.93338 8.31822 7.15304 8.12333 7.33082L5.04386 10.3283C5.53959 11.2359 6.10584 12.0945 6.74259 12.9039C7.37935 13.7133 8.06866 14.4864 8.81053 15.2232C9.54217 15.9548 10.32 16.6343 11.1439 17.2616C11.9678 17.889 12.8576 18.4727 13.8131 19.0129L16.8054 15.9949C17.014 15.7779 17.2665 15.6257 17.5631 15.5386C17.8597 15.4514 18.1678 15.43 18.4875 15.4745L22.19 16.2283C22.5267 16.3172 22.8015 16.489 23.0144 16.7437C23.2272 16.9984 23.3336 17.2873 23.3336 17.6104V21.9334C23.3336 22.3334 23.199 22.6667 22.9299 22.9334C22.6608 23.2 22.3244 23.3334 21.9208 23.3334ZM4.09773 8.43598L6.47723 6.15905C6.51996 6.12485 6.54774 6.07784 6.56056 6.01802C6.57338 5.95817 6.57125 5.90262 6.55416 5.85135L5.97466 2.87185C5.95757 2.80347 5.92766 2.75219 5.88493 2.71802C5.84219 2.68382 5.78664 2.66672 5.71826 2.66672H2.86696C2.81569 2.66672 2.77296 2.68382 2.73876 2.71802C2.70456 2.75219 2.68746 2.79493 2.68746 2.84622C2.75584 3.75733 2.90498 4.68297 3.13489 5.62315C3.36483 6.56333 3.68577 7.50094 4.09773 8.43598ZM15.6977 19.959C16.5815 20.371 17.5033 20.686 18.4631 20.9039C19.4229 21.1219 20.32 21.2513 21.1541 21.2924C21.2054 21.2924 21.2481 21.2753 21.2823 21.2411C21.3165 21.2069 21.3336 21.1641 21.3336 21.1129V18.3077C21.3336 18.2394 21.3165 18.1838 21.2823 18.1411C21.2481 18.0983 21.1969 18.0684 21.1285 18.0513L18.3285 17.4821C18.2772 17.465 18.2324 17.4629 18.1939 17.4757C18.1554 17.4885 18.1148 17.5163 18.0721 17.559L15.6977 19.959Z" fill="#464753"/>
</svg>
