<svg width="24" height="26" viewBox="0 0 24 26" fill="none" xmlns="http://www.w3.org/2000/svg">
<path d="M3.07701 25.3334C2.41419 25.3334 1.84678 25.0974 1.37478 24.6254C0.902759 24.1534 0.666748 23.5859 0.666748 22.9231V5.07706C0.666748 4.41423 0.902759 3.84682 1.37478 3.37482C1.84678 2.9028 2.41419 2.66679 3.07701 2.66679H9.01035C9.0941 1.92663 9.41717 1.29716 9.97955 0.778357C10.5419 0.259535 11.2176 0.00012207 12.0064 0.00012207C12.7953 0.00012207 13.471 0.259535 14.0333 0.778357C14.5957 1.29716 14.9145 1.92663 14.9897 2.66679H20.9231C21.5859 2.66679 22.1533 2.9028 22.6253 3.37482C23.0973 3.84682 23.3333 4.41423 23.3333 5.07706V22.9231C23.3333 23.5859 23.0973 24.1534 22.6253 24.6254C22.1533 25.0974 21.5859 25.3334 20.9231 25.3334H3.07701ZM3.07701 23.3334H20.9231C21.0257 23.3334 21.1197 23.2907 21.2052 23.2052C21.2906 23.1197 21.3334 23.0257 21.3334 22.9231V5.07706C21.3334 4.97448 21.2906 4.88045 21.2052 4.79496C21.1197 4.70949 21.0257 4.66676 20.9231 4.66676H3.07701C2.97444 4.66676 2.8804 4.70949 2.79491 4.79496C2.70945 4.88045 2.66671 4.97448 2.66671 5.07706V22.9231C2.66671 23.0257 2.70945 23.1197 2.79491 23.2052C2.8804 23.2907 2.97444 23.3334 3.07701 23.3334ZM6.66671 20.1796H13.3334C13.6167 20.1796 13.8542 20.0837 14.0459 19.8919C14.2375 19.7002 14.3333 19.4626 14.3333 19.1791C14.3333 18.8957 14.2375 18.6582 14.0459 18.4668C13.8542 18.2753 13.6167 18.1796 13.3334 18.1796H6.66671C6.38338 18.1796 6.14589 18.2755 5.95425 18.4672C5.76258 18.659 5.66675 18.8966 5.66675 19.18C5.66675 19.4635 5.76258 19.7009 5.95425 19.8924C6.14589 20.0838 6.38338 20.1796 6.66671 20.1796ZM6.66671 15.0001H17.3334C17.6167 15.0001 17.8542 14.9042 18.0459 14.7125C18.2375 14.5207 18.3333 14.2831 18.3333 13.9997C18.3333 13.7162 18.2375 13.4787 18.0459 13.2873C17.8542 13.0958 17.6167 13.0001 17.3334 13.0001H6.66671C6.38338 13.0001 6.14589 13.096 5.95425 13.2877C5.76258 13.4795 5.66675 13.7171 5.66675 14.0005C5.66675 14.284 5.76258 14.5214 5.95425 14.7129C6.14589 14.9043 6.38338 15.0001 6.66671 15.0001ZM6.66671 9.82059H17.3334C17.6167 9.82059 17.8542 9.72471 18.0459 9.53296C18.2375 9.34122 18.3333 9.10362 18.3333 8.82016C18.3333 8.53671 18.2375 8.29927 18.0459 8.10782C17.8542 7.91636 17.6167 7.82062 17.3334 7.82062H6.66671C6.38338 7.82062 6.14589 7.9165 5.95425 8.10826C5.76258 8.30001 5.66675 8.53761 5.66675 8.82106C5.66675 9.10452 5.76258 9.34198 5.95425 9.53342C6.14589 9.72487 6.38338 9.82059 6.66671 9.82059ZM12 3.79496C12.2889 3.79496 12.5278 3.70051 12.7167 3.51162C12.9056 3.32273 13 3.08385 13 2.79496C13 2.50607 12.9056 2.26718 12.7167 2.07829C12.5278 1.8894 12.2889 1.79496 12 1.79496C11.7112 1.79496 11.4723 1.8894 11.2834 2.07829C11.0945 2.26718 11 2.50607 11 2.79496C11 3.08385 11.0945 3.32273 11.2834 3.51162C11.4723 3.70051 11.7112 3.79496 12 3.79496Z" fill="#3366FF"/>
</svg>
