<svg width="26" height="26" viewBox="0 0 26 26" fill="none" xmlns="http://www.w3.org/2000/svg">
<path d="M17.1402 3.73074C16.7595 3.73074 16.4379 3.5993 16.1755 3.33644C15.9131 3.07357 15.782 2.75178 15.782 2.37107C15.782 1.99036 15.9134 1.66881 16.1763 1.40644C16.4391 1.14404 16.7609 1.01284 17.1416 1.01284C17.5223 1.01284 17.8439 1.14427 18.1063 1.40714C18.3687 1.67001 18.4999 1.99179 18.4999 2.37251C18.4999 2.75322 18.3684 3.07477 18.1056 3.33717C17.8427 3.59955 17.5209 3.73074 17.1402 3.73074ZM17.1017 24.9871C16.721 24.9871 16.3995 24.8557 16.1371 24.5928C15.8747 24.3299 15.7435 24.0081 15.7435 23.6274C15.7435 23.2467 15.8749 22.9252 16.1378 22.6628C16.4007 22.4004 16.7224 22.2692 17.1032 22.2692C17.4839 22.2692 17.8054 22.4006 18.0678 22.6635C18.3302 22.9264 18.4614 23.2482 18.4614 23.6289C18.4614 24.0096 18.33 24.3311 18.0671 24.5935C17.8042 24.8559 17.4824 24.9871 17.1017 24.9871ZM22.4351 8.24354C22.0543 8.24354 21.7328 8.1121 21.4704 7.84924C21.208 7.58637 21.0768 7.26458 21.0768 6.88387C21.0768 6.50316 21.2083 6.18162 21.4711 5.91924C21.734 5.65684 22.0558 5.52564 22.4365 5.52564C22.8172 5.52564 23.1387 5.65708 23.4011 5.91997C23.6635 6.18284 23.7947 6.50463 23.7947 6.88534C23.7947 7.26605 23.6633 7.58759 23.4004 7.84997C23.1376 8.11235 22.8158 8.24354 22.4351 8.24354ZM22.3966 20.5128C22.0159 20.5128 21.6943 20.3813 21.4319 20.1184C21.1695 19.8556 21.0384 19.5338 21.0384 19.1531C21.0384 18.7724 21.1698 18.4508 21.4327 18.1884C21.6955 17.926 22.0173 17.7948 22.398 17.7948C22.7787 17.7948 23.1003 17.9263 23.3627 18.1892C23.6251 18.452 23.7563 18.7738 23.7563 19.1545C23.7563 19.5352 23.6248 19.8568 23.362 20.1192C23.0991 20.3816 22.7773 20.5128 22.3966 20.5128ZM24.3068 14.3589C23.9261 14.3589 23.6046 14.2275 23.3422 13.9646C23.0798 13.7017 22.9486 13.3799 22.9486 12.9992C22.9486 12.6185 23.08 12.297 23.3429 12.0346C23.6058 11.7722 23.9276 11.641 24.3083 11.641C24.689 11.641 25.0105 11.7724 25.2729 12.0353C25.5353 12.2982 25.6665 12.62 25.6665 13.0007C25.6665 13.3814 25.5351 13.703 25.2722 13.9653C25.0093 14.2277 24.6875 14.3589 24.3068 14.3589ZM0.333252 12.998C0.333252 9.65574 1.45804 6.78247 3.70762 4.3782C5.9572 1.97394 8.71531 0.639327 11.982 0.374371C12.2606 0.347016 12.4999 0.429527 12.6999 0.621905C12.8999 0.814261 12.9999 1.05263 12.9999 1.33701C12.9999 1.60463 12.9067 1.83758 12.7204 2.03587C12.5341 2.23416 12.3059 2.34698 12.0358 2.37434C9.28709 2.61707 6.98281 3.74912 5.12298 5.77047C3.26314 7.79185 2.33322 10.2016 2.33322 12.9997C2.33322 15.8204 3.26314 18.2359 5.12298 20.2461C6.98281 22.2564 9.28709 23.3829 12.0358 23.6256C12.3059 23.653 12.5341 23.7667 12.7204 23.9668C12.9067 24.1669 12.9999 24.4003 12.9999 24.6671C12.9999 24.9505 12.8999 25.188 12.6999 25.3794C12.4999 25.5709 12.2606 25.6529 11.982 25.6256C8.70162 25.3606 5.94009 24.0253 3.69735 21.6198C1.45462 19.2142 0.333252 16.3403 0.333252 12.998ZM12.9999 15.3333C12.352 15.3333 11.8012 15.1063 11.3474 14.6525C10.8935 14.1987 10.6666 13.6478 10.6666 13C10.6666 12.8632 10.6764 12.7294 10.6961 12.5987C10.7157 12.4679 10.7563 12.3427 10.8179 12.223L8.83069 10.223C8.64606 10.0384 8.55589 9.80637 8.56015 9.5269C8.56444 9.24742 8.65889 9.01537 8.84349 8.83077C9.02811 8.64615 9.25802 8.55384 9.53322 8.55384C9.80842 8.55384 10.0383 8.64615 10.223 8.83077L12.223 10.8179C12.3204 10.7786 12.5794 10.7282 12.9999 10.6667C13.6478 10.6667 14.1986 10.8936 14.6524 11.3474C15.1063 11.8013 15.3332 12.3521 15.3332 13C15.3332 13.6478 15.1063 14.1987 14.6524 14.6525C14.1986 15.1063 13.6478 15.3333 12.9999 15.3333Z" fill="#3366FF"/>
</svg>
