<svg width="16" height="12" viewBox="0 0 16 12" fill="none" xmlns="http://www.w3.org/2000/svg">
<path d="M5.55135 9.51537L14.1898 0.876923C14.3385 0.728207 14.5151 0.652239 14.7196 0.649023C14.9241 0.645823 15.1039 0.72179 15.259 0.876923C15.4142 1.03204 15.4917 1.21024 15.4917 1.41152C15.4917 1.61279 15.4142 1.79099 15.259 1.94612L6.18402 11.0211C6.00326 11.2019 5.79237 11.2922 5.55135 11.2922C5.31033 11.2922 5.09944 11.2019 4.91867 11.0211L0.743674 6.84612C0.594957 6.69741 0.521557 6.52081 0.523474 6.31632C0.525407 6.11184 0.603933 5.93204 0.759049 5.77692C0.914183 5.62179 1.09238 5.54422 1.29365 5.54422C1.49493 5.54422 1.67313 5.62179 1.82825 5.77692L5.55135 9.51537Z" fill="#009E36"/>
</svg>
