<svg width="25" height="25" viewBox="0 0 25 25" fill="none" xmlns="http://www.w3.org/2000/svg">
<path d="M2.29989 24.9999V20.9999H6.43322L3.03322 9.86662C2.43322 9.53328 1.93877 9.04439 1.54989 8.39995C1.161 7.75551 0.966553 7.06662 0.966553 6.33328C0.966553 5.22217 1.35544 4.27773 2.13322 3.49995C2.911 2.72217 3.85544 2.33328 4.96655 2.33328C5.83322 2.33328 6.60544 2.58328 7.28322 3.08328C7.961 3.58328 8.43322 4.22217 8.69989 4.99995H12.9666V3.66662C12.9666 3.28884 13.0943 2.97217 13.3499 2.71662C13.6054 2.46106 13.9221 2.33328 14.2999 2.33328C14.4999 2.33328 14.6943 2.37773 14.8832 2.46662C15.0721 2.5555 15.2332 2.68884 15.3666 2.86662L17.6332 0.733283C17.8332 0.533283 18.0721 0.405505 18.3499 0.349949C18.6277 0.294394 18.8999 0.333283 19.1666 0.466616L24.3666 2.86662C24.6332 2.99995 24.8166 3.19439 24.9166 3.44995C25.0166 3.7055 25.011 3.9555 24.8999 4.19995C24.7666 4.46662 24.5721 4.63884 24.3166 4.71662C24.061 4.79439 23.811 4.77773 23.5666 4.66662L18.7666 2.46662L15.6332 5.39995V7.26662L18.7666 10.1333L23.5666 7.93328C23.811 7.82217 24.0666 7.81106 24.3332 7.89995C24.5999 7.98884 24.7888 8.15551 24.8999 8.39995C25.0332 8.66662 25.0443 8.92217 24.9332 9.16662C24.8221 9.41106 24.6332 9.59995 24.3666 9.73328L19.1666 12.2C18.8999 12.3333 18.6277 12.3722 18.3499 12.3166C18.0721 12.2611 17.8332 12.1333 17.6332 11.9333L15.3666 9.79995C15.2332 9.93328 15.0721 10.0555 14.8832 10.1666C14.6943 10.2777 14.4999 10.3333 14.2999 10.3333C13.9221 10.3333 13.6054 10.2055 13.3499 9.94995C13.0943 9.69439 12.9666 9.37773 12.9666 8.99995V7.66662H8.69989C8.63322 7.84439 8.561 8.01106 8.48322 8.16662C8.40544 8.32217 8.29989 8.48884 8.16655 8.66662L14.8332 20.9999H19.6332V24.9999H2.29989ZM4.96655 7.66662C5.34433 7.66662 5.661 7.53884 5.91655 7.28328C6.17211 7.02773 6.29989 6.71106 6.29989 6.33328C6.29989 5.9555 6.17211 5.63884 5.91655 5.38328C5.661 5.12773 5.34433 4.99995 4.96655 4.99995C4.58877 4.99995 4.27211 5.12773 4.01655 5.38328C3.761 5.63884 3.63322 5.9555 3.63322 6.33328C3.63322 6.71106 3.761 7.02773 4.01655 7.28328C4.27211 7.53884 4.58877 7.66662 4.96655 7.66662ZM9.16655 20.9999H11.7666L6.03322 10.3333H5.89989L9.16655 20.9999Z" fill="#3366FF"/>
</svg>
