<svg width="28" height="26" viewBox="0 0 28 26" fill="none" xmlns="http://www.w3.org/2000/svg">
<path d="M12.6004 14.4205L10.4362 12.2769C10.2516 12.0923 10.023 11.9979 9.75038 11.9936C9.47774 11.9893 9.238 12.0906 9.03118 12.2974C8.838 12.4906 8.74141 12.7248 8.74141 13C8.74141 13.2752 8.838 13.5093 9.03118 13.7025L11.7568 16.4281C11.9978 16.6692 12.279 16.7897 12.6004 16.7897C12.9217 16.7897 13.2029 16.6692 13.4439 16.4281L18.9696 10.9025C19.1679 10.7042 19.2657 10.4722 19.2632 10.2064C19.2606 9.94056 19.1628 9.70425 18.9696 9.49743C18.7628 9.29058 18.5252 9.18374 18.2568 9.17689C17.9884 9.17007 17.7508 9.27007 17.544 9.47689L12.6004 14.4205ZM9.21321 25.2435L7.36965 22.1435L3.88248 21.3948C3.58333 21.3367 3.34444 21.1794 3.16581 20.923C2.98719 20.6666 2.91583 20.3888 2.95171 20.0897L3.29275 16.5025L0.920948 13.7897C0.715837 13.5709 0.613281 13.3076 0.613281 13C0.613281 12.6923 0.715837 12.429 0.920948 12.2102L3.29275 9.49743L2.95171 5.91026C2.91583 5.61111 2.98719 5.33333 3.16581 5.07693C3.34444 4.82051 3.58333 4.66324 3.88248 4.60513L7.36965 3.85643L9.21321 0.756426C9.3739 0.493181 9.59271 0.313693 9.86965 0.217959C10.1466 0.122248 10.4277 0.136783 10.7132 0.261561L14.0004 1.65129L17.2875 0.261561C17.573 0.136783 17.8542 0.122248 18.1311 0.217959C18.408 0.313693 18.6269 0.493181 18.7875 0.756426L20.6311 3.85643L24.1183 4.60513C24.4174 4.66324 24.6563 4.82051 24.8349 5.07693C25.0136 5.33333 25.0849 5.61111 25.049 5.91026L24.708 9.49743L27.0798 12.2102C27.2849 12.429 27.3875 12.6923 27.3875 13C27.3875 13.3076 27.2849 13.5709 27.0798 13.7897L24.708 16.5025L25.049 20.0897C25.0849 20.3888 25.0136 20.6666 24.8349 20.923C24.6563 21.1794 24.4174 21.3367 24.1183 21.3948L20.6311 22.1435L18.7875 25.2435C18.6269 25.5067 18.408 25.6862 18.1311 25.782C17.8542 25.8777 17.573 25.8632 17.2875 25.7384L14.0004 24.3486L10.7132 25.7384C10.4277 25.8631 10.1466 25.8777 9.86965 25.782C9.59271 25.6862 9.3739 25.5067 9.21321 25.2435ZM10.6004 23.6L14.0004 22.1589L17.4414 23.6L19.3337 20.4L23.0004 19.5589L22.667 15.8L25.1337 13L22.667 10.1589L23.0004 6.39996L19.3337 5.59996L17.4004 2.39996L14.0004 3.84099L10.5593 2.39996L8.66705 5.59996L5.00038 6.39996L5.33371 10.1589L2.86705 13L5.33371 15.8L5.00038 19.6L8.66705 20.4L10.6004 23.6Z" fill="#3366FF"/>
</svg>
